<svg xmlns="http://www.w3.org/2000/svg" enable-background="new 0 0 52 52" viewBox="0 0 52 52" id="medical-data"><path fill="#fcb910" d="M10.79259,15.4487v25.3127c0,2.428-1.96829,4.39629-4.39629,4.39629H6.39629
			C3.96829,45.15768,2,43.1894,2,40.76139v-21.6067c0-2.04676,1.65923-3.70599,3.70599-3.70599H10.79259z"></path><path fill="#fc3" d="M28.16279,13.1079l-4.95372-5.13311c-0.69841-0.7237-1.66097-1.13247-2.66671-1.13247h-6.0486
			c-2.04676,0-3.70599,1.65923-3.70599,3.70599v30.21552c0,2.42869-1.96516,4.39385-4.39385,4.39385h39.21223
			C48.0328,45.15768,50,43.19049,50,40.76383V16.81389c0-2.04676-1.65923-3.70599-3.70599-3.70599
			C46.29401,13.1079,28.16279,13.1079,28.16279,13.1079z"></path><path fill="#fff" d="M40.40209,28.73988c0,5.52405-4.48175,9.99421-10.0058,9.99421S20.3905,34.26393,20.3905,28.73988
			s4.48175-10.00579,10.00579-10.00579S40.40209,23.21584,40.40209,28.73988z"></path><path fill="#ff4848" d="M35.15897,31.48538c-0.22776,0.39342-0.64191,0.61082-1.06638,0.61082
			c-0.20704,0-0.41929-0.05175-0.61082-0.16565l-1.85834-1.07153v2.14307c0,0.67812-0.5487,1.232-1.22682,1.232
			c-0.34167,0-0.64706-0.13977-0.86964-0.36236c-0.22261-0.22259-0.36236-0.53316-0.36236-0.86964v-2.14307l-1.85319,1.07153
			c-0.59013,0.34167-1.34069,0.13978-1.67717-0.44517c-0.1139-0.19671-0.16565-0.40893-0.16565-0.616
			c0-0.42447,0.22259-0.83859,0.616-1.06635l1.85837-1.07153l-1.85837-1.07153c-0.59012-0.33645-0.79202-1.08705-0.45035-1.67717
			c0.22777-0.39342,0.6367-0.616,1.06117-0.616c0.20707,0,0.41929,0.05693,0.616,0.16565l1.85319,1.07153v-2.14307
			c0-0.67812,0.55389-1.22682,1.232-1.22682c0.34163,0,0.64706,0.13459,0.86964,0.35718
			c0.2174,0.22258,0.35718,0.53319,0.35718,0.86964v2.14307l1.85834-1.07153c0.58494-0.33648,1.33554-0.13977,1.6772,0.45035
			c0.10869,0.19671,0.16562,0.40893,0.16562,0.616c0,0.42447-0.22258,0.8334-0.616,1.06117l-1.85833,1.07153l1.85833,1.07153
			C35.29871,30.14466,35.49542,30.89526,35.15897,31.48538z"></path><path fill="#fff" d="M14.57849 13.03387c-.20703 0-.375-.16797-.375-.375v-1.0249c0-.20703.16797-.375.375-.375s.375.16797.375.375v1.0249C14.95349 12.86591 14.78552 13.03387 14.57849 13.03387zM14.57849 28.69257c-.20703 0-.375-.16797-.375-.375V15.03143c0-.20703.16797-.375.375-.375s.375.16797.375.375v13.28613C14.95349 28.5246 14.78552 28.69257 14.57849 28.69257z"></path></svg>